<mxfile host="app.diagrams.net" agent="Mozilla/5.0 (Windows NT 10.0; Win64; x64) AppleWebKit/537.36 (KHTML, like Gecko) Chrome/136.0.0.0 Safari/537.36" version="27.0.6">
  <diagram name="페이지-1" id="whLFLDpv9hWIQBEOgnWq">
    <mxGraphModel dx="1426" dy="785" grid="1" gridSize="10" guides="1" tooltips="1" connect="1" arrows="1" fold="1" page="1" pageScale="1" pageWidth="827" pageHeight="1169" math="0" shadow="0">
      <root>
        <mxCell id="0" />
        <mxCell id="1" parent="0" />
        <mxCell id="lGSin_4eT-B3Pep32u-L-1" value="FastAPI" style="ellipse;whiteSpace=wrap;html=1;aspect=fixed;" parent="1" vertex="1">
          <mxGeometry x="440" y="20" width="50" height="50" as="geometry" />
        </mxCell>
        <mxCell id="lGSin_4eT-B3Pep32u-L-7" value="main" style="rounded=0;whiteSpace=wrap;html=1;" parent="1" vertex="1">
          <mxGeometry x="405" y="150" width="120" height="60" as="geometry" />
        </mxCell>
        <mxCell id="lGSin_4eT-B3Pep32u-L-9" value="" style="endArrow=classic;html=1;rounded=0;exitX=0.5;exitY=1;exitDx=0;exitDy=0;entryX=0.5;entryY=0;entryDx=0;entryDy=0;" parent="1" source="lGSin_4eT-B3Pep32u-L-1" target="lGSin_4eT-B3Pep32u-L-7" edge="1">
          <mxGeometry relative="1" as="geometry">
            <mxPoint x="520" y="270" as="sourcePoint" />
            <mxPoint x="620" y="270" as="targetPoint" />
          </mxGeometry>
        </mxCell>
        <mxCell id="lGSin_4eT-B3Pep32u-L-10" value="Get ( C#에서 호출 )&amp;nbsp;" style="edgeLabel;resizable=0;html=1;;align=center;verticalAlign=middle;fontStyle=1" parent="lGSin_4eT-B3Pep32u-L-9" connectable="0" vertex="1">
          <mxGeometry relative="1" as="geometry" />
        </mxCell>
        <mxCell id="lGSin_4eT-B3Pep32u-L-11" value="&lt;b&gt;DataBase&lt;/b&gt;" style="swimlane;fontStyle=0;childLayout=stackLayout;horizontal=1;startSize=30;horizontalStack=0;resizeParent=1;resizeParentMax=0;resizeLast=0;collapsible=1;marginBottom=0;whiteSpace=wrap;html=1;" parent="1" vertex="1">
          <mxGeometry x="390" y="550" width="150" height="210" as="geometry" />
        </mxCell>
        <mxCell id="lGSin_4eT-B3Pep32u-L-13" value="- 데이터 정보 초기화&amp;nbsp;" style="text;strokeColor=none;fillColor=none;align=left;verticalAlign=middle;spacingLeft=4;spacingRight=4;overflow=hidden;points=[[0,0.5],[1,0.5]];portConstraint=eastwest;rotatable=0;whiteSpace=wrap;html=1;" parent="lGSin_4eT-B3Pep32u-L-11" vertex="1">
          <mxGeometry y="30" width="150" height="30" as="geometry" />
        </mxCell>
        <mxCell id="lGSin_4eT-B3Pep32u-L-14" value="- 모든 지역 출력" style="text;strokeColor=none;fillColor=none;align=left;verticalAlign=middle;spacingLeft=4;spacingRight=4;overflow=hidden;points=[[0,0.5],[1,0.5]];portConstraint=eastwest;rotatable=0;whiteSpace=wrap;html=1;" parent="lGSin_4eT-B3Pep32u-L-11" vertex="1">
          <mxGeometry y="60" width="150" height="30" as="geometry" />
        </mxCell>
        <mxCell id="lGSin_4eT-B3Pep32u-L-19" value="- 지역이름 -&amp;gt; 경도 ,위도" style="text;strokeColor=none;fillColor=none;align=left;verticalAlign=middle;spacingLeft=4;spacingRight=4;overflow=hidden;points=[[0,0.5],[1,0.5]];portConstraint=eastwest;rotatable=0;whiteSpace=wrap;html=1;" parent="lGSin_4eT-B3Pep32u-L-11" vertex="1">
          <mxGeometry y="90" width="150" height="30" as="geometry" />
        </mxCell>
        <mxCell id="lGSin_4eT-B3Pep32u-L-20" value="- 카테고리 -&amp;gt; 이름 , 단위&amp;nbsp;" style="text;strokeColor=none;fillColor=none;align=left;verticalAlign=middle;spacingLeft=4;spacingRight=4;overflow=hidden;points=[[0,0.5],[1,0.5]];portConstraint=eastwest;rotatable=0;whiteSpace=wrap;html=1;" parent="lGSin_4eT-B3Pep32u-L-11" vertex="1">
          <mxGeometry y="120" width="150" height="30" as="geometry" />
        </mxCell>
        <mxCell id="lGSin_4eT-B3Pep32u-L-21" value="- 단기 예보 정보 저장&amp;nbsp;" style="text;strokeColor=none;fillColor=none;align=left;verticalAlign=middle;spacingLeft=4;spacingRight=4;overflow=hidden;points=[[0,0.5],[1,0.5]];portConstraint=eastwest;rotatable=0;whiteSpace=wrap;html=1;" parent="lGSin_4eT-B3Pep32u-L-11" vertex="1">
          <mxGeometry y="150" width="150" height="30" as="geometry" />
        </mxCell>
        <mxCell id="lGSin_4eT-B3Pep32u-L-22" value="- 이전 예보 정보 저장" style="text;strokeColor=none;fillColor=none;align=left;verticalAlign=middle;spacingLeft=4;spacingRight=4;overflow=hidden;points=[[0,0.5],[1,0.5]];portConstraint=eastwest;rotatable=0;whiteSpace=wrap;html=1;" parent="lGSin_4eT-B3Pep32u-L-11" vertex="1">
          <mxGeometry y="180" width="150" height="30" as="geometry" />
        </mxCell>
        <mxCell id="lGSin_4eT-B3Pep32u-L-57" style="edgeStyle=orthogonalEdgeStyle;rounded=0;orthogonalLoop=1;jettySize=auto;html=1;entryX=0.5;entryY=0;entryDx=0;entryDy=0;" parent="1" source="lGSin_4eT-B3Pep32u-L-15" target="lGSin_4eT-B3Pep32u-L-38" edge="1">
          <mxGeometry relative="1" as="geometry" />
        </mxCell>
        <mxCell id="lGSin_4eT-B3Pep32u-L-15" value="&lt;b&gt;WeatherManagement&lt;/b&gt;" style="swimlane;fontStyle=0;childLayout=stackLayout;horizontal=1;startSize=30;horizontalStack=0;resizeParent=1;resizeParentMax=0;resizeLast=0;collapsible=1;marginBottom=0;whiteSpace=wrap;html=1;" parent="1" vertex="1">
          <mxGeometry x="395" y="270" width="140" height="90" as="geometry" />
        </mxCell>
        <mxCell id="lGSin_4eT-B3Pep32u-L-16" value="Class: Weather" style="text;strokeColor=none;fillColor=none;align=left;verticalAlign=middle;spacingLeft=4;spacingRight=4;overflow=hidden;points=[[0,0.5],[1,0.5]];portConstraint=eastwest;rotatable=0;whiteSpace=wrap;html=1;" parent="lGSin_4eT-B3Pep32u-L-15" vertex="1">
          <mxGeometry y="30" width="140" height="30" as="geometry" />
        </mxCell>
        <mxCell id="lGSin_4eT-B3Pep32u-L-17" value="+ Search : 검색기능" style="text;strokeColor=none;fillColor=none;align=left;verticalAlign=middle;spacingLeft=4;spacingRight=4;overflow=hidden;points=[[0,0.5],[1,0.5]];portConstraint=eastwest;rotatable=0;whiteSpace=wrap;html=1;" parent="lGSin_4eT-B3Pep32u-L-15" vertex="1">
          <mxGeometry y="60" width="140" height="30" as="geometry" />
        </mxCell>
        <mxCell id="lGSin_4eT-B3Pep32u-L-23" value="" style="endArrow=classic;html=1;rounded=0;exitX=0.5;exitY=1;exitDx=0;exitDy=0;entryX=0.5;entryY=0;entryDx=0;entryDy=0;" parent="1" source="lGSin_4eT-B3Pep32u-L-7" target="lGSin_4eT-B3Pep32u-L-15" edge="1">
          <mxGeometry relative="1" as="geometry">
            <mxPoint x="590" y="220" as="sourcePoint" />
            <mxPoint x="590" y="300" as="targetPoint" />
          </mxGeometry>
        </mxCell>
        <mxCell id="lGSin_4eT-B3Pep32u-L-24" value="Search" style="edgeLabel;resizable=0;html=1;;align=center;verticalAlign=middle;fontStyle=1" parent="lGSin_4eT-B3Pep32u-L-23" connectable="0" vertex="1">
          <mxGeometry relative="1" as="geometry" />
        </mxCell>
        <mxCell id="lGSin_4eT-B3Pep32u-L-26" value="&lt;font&gt;&lt;b&gt;ExcelInsert&lt;/b&gt;&lt;/font&gt;" style="swimlane;fontStyle=0;childLayout=stackLayout;horizontal=1;startSize=30;horizontalStack=0;resizeParent=1;resizeParentMax=0;resizeLast=0;collapsible=1;marginBottom=0;whiteSpace=wrap;html=1;" parent="1" vertex="1">
          <mxGeometry x="640" y="580" width="160" height="60" as="geometry" />
        </mxCell>
        <mxCell id="lGSin_4eT-B3Pep32u-L-27" value="&lt;font style=&quot;font-size: 10px;&quot;&gt;엑셀 정보 -&amp;gt; 데이터테이블 저장&lt;/font&gt;" style="text;strokeColor=none;fillColor=none;align=center;verticalAlign=middle;spacingLeft=4;spacingRight=4;overflow=hidden;points=[[0,0.5],[1,0.5]];portConstraint=eastwest;rotatable=0;whiteSpace=wrap;html=1;" parent="lGSin_4eT-B3Pep32u-L-26" vertex="1">
          <mxGeometry y="30" width="160" height="30" as="geometry" />
        </mxCell>
        <mxCell id="lGSin_4eT-B3Pep32u-L-31" value="&lt;b&gt;OpenAPI&lt;/b&gt;" style="swimlane;fontStyle=0;childLayout=stackLayout;horizontal=1;startSize=30;horizontalStack=0;resizeParent=1;resizeParentMax=0;resizeLast=0;collapsible=1;marginBottom=0;whiteSpace=wrap;html=1;" parent="1" vertex="1">
          <mxGeometry x="30" y="700" width="150" height="60" as="geometry" />
        </mxCell>
        <mxCell id="lGSin_4eT-B3Pep32u-L-32" value="기상청 OpenAPI 파싱" style="text;strokeColor=none;fillColor=none;align=center;verticalAlign=middle;spacingLeft=4;spacingRight=4;overflow=hidden;points=[[0,0.5],[1,0.5]];portConstraint=eastwest;rotatable=0;whiteSpace=wrap;html=1;" parent="lGSin_4eT-B3Pep32u-L-31" vertex="1">
          <mxGeometry y="30" width="150" height="30" as="geometry" />
        </mxCell>
        <mxCell id="lGSin_4eT-B3Pep32u-L-38" value="&lt;b&gt;Redis&lt;/b&gt;" style="swimlane;fontStyle=0;childLayout=stackLayout;horizontal=1;startSize=30;horizontalStack=0;resizeParent=1;resizeParentMax=0;resizeLast=0;collapsible=1;marginBottom=0;whiteSpace=wrap;html=1;" parent="1" vertex="1">
          <mxGeometry x="390" y="400" width="150" height="60" as="geometry" />
        </mxCell>
        <mxCell id="lGSin_4eT-B3Pep32u-L-39" value="메모리 캐시에 단기예보 정보 저장" style="text;strokeColor=none;fillColor=none;align=center;verticalAlign=middle;spacingLeft=4;spacingRight=4;overflow=hidden;points=[[0,0.5],[1,0.5]];portConstraint=eastwest;rotatable=0;whiteSpace=wrap;html=1;" parent="lGSin_4eT-B3Pep32u-L-38" vertex="1">
          <mxGeometry y="30" width="150" height="30" as="geometry" />
        </mxCell>
        <mxCell id="lGSin_4eT-B3Pep32u-L-59" value="&lt;b&gt;3시간 마다 최신화&lt;/b&gt;" style="edgeStyle=orthogonalEdgeStyle;rounded=0;orthogonalLoop=1;jettySize=auto;html=1;entryX=1;entryY=0.25;entryDx=0;entryDy=0;" parent="1" source="lGSin_4eT-B3Pep32u-L-21" target="lGSin_4eT-B3Pep32u-L-31" edge="1">
          <mxGeometry relative="1" as="geometry">
            <mxPoint x="460" y="810" as="targetPoint" />
            <Array as="points">
              <mxPoint x="230" y="715" />
              <mxPoint x="230" y="715" />
            </Array>
          </mxGeometry>
        </mxCell>
        <mxCell id="lGSin_4eT-B3Pep32u-L-61" style="edgeStyle=orthogonalEdgeStyle;rounded=0;orthogonalLoop=1;jettySize=auto;html=1;exitX=1;exitY=0.5;exitDx=0;exitDy=0;entryX=0;entryY=0.25;entryDx=0;entryDy=0;endArrow=none;startFill=0;strokeWidth=2;dashed=1;" parent="1" source="lGSin_4eT-B3Pep32u-L-13" target="lGSin_4eT-B3Pep32u-L-26" edge="1">
          <mxGeometry relative="1" as="geometry" />
        </mxCell>
        <mxCell id="lGSin_4eT-B3Pep32u-L-63" value="&lt;b&gt;메모리에 존재하지 않음&amp;nbsp;&lt;/b&gt;" style="edgeStyle=orthogonalEdgeStyle;rounded=0;orthogonalLoop=1;jettySize=auto;html=1;entryX=0.5;entryY=0;entryDx=0;entryDy=0;exitX=0.501;exitY=1.009;exitDx=0;exitDy=0;exitPerimeter=0;" parent="1" source="lGSin_4eT-B3Pep32u-L-39" target="lGSin_4eT-B3Pep32u-L-11" edge="1">
          <mxGeometry relative="1" as="geometry">
            <mxPoint x="470" y="470" as="sourcePoint" />
          </mxGeometry>
        </mxCell>
        <mxCell id="lGSin_4eT-B3Pep32u-L-64" value="단기 예보 정보" style="swimlane;fontStyle=0;childLayout=stackLayout;horizontal=1;startSize=30;horizontalStack=0;resizeParent=1;resizeParentMax=0;resizeLast=0;collapsible=1;marginBottom=0;whiteSpace=wrap;html=1;" parent="1" vertex="1">
          <mxGeometry x="215" y="900" width="230" height="240" as="geometry" />
        </mxCell>
        <mxCell id="lGSin_4eT-B3Pep32u-L-65" value="예상 시각&amp;nbsp; ex(20250524 : 2100 )&amp;nbsp;" style="text;strokeColor=none;fillColor=none;align=center;verticalAlign=middle;spacingLeft=4;spacingRight=4;overflow=hidden;points=[[0,0.5],[1,0.5]];portConstraint=eastwest;rotatable=0;whiteSpace=wrap;html=1;" parent="lGSin_4eT-B3Pep32u-L-64" vertex="1">
          <mxGeometry y="30" width="230" height="30" as="geometry" />
        </mxCell>
        <mxCell id="lGSin_4eT-B3Pep32u-L-66" value="1 시간 기온" style="text;strokeColor=none;fillColor=none;align=center;verticalAlign=middle;spacingLeft=4;spacingRight=4;overflow=hidden;points=[[0,0.5],[1,0.5]];portConstraint=eastwest;rotatable=0;whiteSpace=wrap;html=1;" parent="lGSin_4eT-B3Pep32u-L-64" vertex="1">
          <mxGeometry y="60" width="230" height="30" as="geometry" />
        </mxCell>
        <mxCell id="lGSin_4eT-B3Pep32u-L-67" value="하늘상태" style="text;strokeColor=none;fillColor=none;align=center;verticalAlign=middle;spacingLeft=4;spacingRight=4;overflow=hidden;points=[[0,0.5],[1,0.5]];portConstraint=eastwest;rotatable=0;whiteSpace=wrap;html=1;" parent="lGSin_4eT-B3Pep32u-L-64" vertex="1">
          <mxGeometry y="90" width="230" height="30" as="geometry" />
        </mxCell>
        <mxCell id="lGSin_4eT-B3Pep32u-L-68" value="강수형태" style="text;strokeColor=none;fillColor=none;align=center;verticalAlign=middle;spacingLeft=4;spacingRight=4;overflow=hidden;points=[[0,0.5],[1,0.5]];portConstraint=eastwest;rotatable=0;whiteSpace=wrap;html=1;" parent="lGSin_4eT-B3Pep32u-L-64" vertex="1">
          <mxGeometry y="120" width="230" height="30" as="geometry" />
        </mxCell>
        <mxCell id="lGSin_4eT-B3Pep32u-L-69" value="강수확률" style="text;strokeColor=none;fillColor=none;align=center;verticalAlign=middle;spacingLeft=4;spacingRight=4;overflow=hidden;points=[[0,0.5],[1,0.5]];portConstraint=eastwest;rotatable=0;whiteSpace=wrap;html=1;" parent="lGSin_4eT-B3Pep32u-L-64" vertex="1">
          <mxGeometry y="150" width="230" height="30" as="geometry" />
        </mxCell>
        <mxCell id="lGSin_4eT-B3Pep32u-L-70" value="1시간 강수량" style="text;strokeColor=none;fillColor=none;align=center;verticalAlign=middle;spacingLeft=4;spacingRight=4;overflow=hidden;points=[[0,0.5],[1,0.5]];portConstraint=eastwest;rotatable=0;whiteSpace=wrap;html=1;" parent="lGSin_4eT-B3Pep32u-L-64" vertex="1">
          <mxGeometry y="180" width="230" height="30" as="geometry" />
        </mxCell>
        <mxCell id="lGSin_4eT-B3Pep32u-L-71" value="신적설" style="text;strokeColor=none;fillColor=none;align=center;verticalAlign=middle;spacingLeft=4;spacingRight=4;overflow=hidden;points=[[0,0.5],[1,0.5]];portConstraint=eastwest;rotatable=0;whiteSpace=wrap;html=1;" parent="lGSin_4eT-B3Pep32u-L-64" vertex="1">
          <mxGeometry y="210" width="230" height="30" as="geometry" />
        </mxCell>
        <mxCell id="lGSin_4eT-B3Pep32u-L-73" value="이전 예보 정보" style="swimlane;fontStyle=0;childLayout=stackLayout;horizontal=1;startSize=30;horizontalStack=0;resizeParent=1;resizeParentMax=0;resizeLast=0;collapsible=1;marginBottom=0;whiteSpace=wrap;html=1;" parent="1" vertex="1">
          <mxGeometry x="485" y="900" width="230" height="120" as="geometry" />
        </mxCell>
        <mxCell id="lGSin_4eT-B3Pep32u-L-74" value="시각 ex ( 20250524 )" style="text;strokeColor=none;fillColor=none;align=center;verticalAlign=middle;spacingLeft=4;spacingRight=4;overflow=hidden;points=[[0,0.5],[1,0.5]];portConstraint=eastwest;rotatable=0;whiteSpace=wrap;html=1;" parent="lGSin_4eT-B3Pep32u-L-73" vertex="1">
          <mxGeometry y="30" width="230" height="30" as="geometry" />
        </mxCell>
        <mxCell id="lGSin_4eT-B3Pep32u-L-76" value="하늘상태" style="text;strokeColor=none;fillColor=none;align=center;verticalAlign=middle;spacingLeft=4;spacingRight=4;overflow=hidden;points=[[0,0.5],[1,0.5]];portConstraint=eastwest;rotatable=0;whiteSpace=wrap;html=1;" parent="lGSin_4eT-B3Pep32u-L-73" vertex="1">
          <mxGeometry y="60" width="230" height="30" as="geometry" />
        </mxCell>
        <mxCell id="lGSin_4eT-B3Pep32u-L-77" value="강수형태" style="text;strokeColor=none;fillColor=none;align=center;verticalAlign=middle;spacingLeft=4;spacingRight=4;overflow=hidden;points=[[0,0.5],[1,0.5]];portConstraint=eastwest;rotatable=0;whiteSpace=wrap;html=1;" parent="lGSin_4eT-B3Pep32u-L-73" vertex="1">
          <mxGeometry y="90" width="230" height="30" as="geometry" />
        </mxCell>
        <mxCell id="lGSin_4eT-B3Pep32u-L-81" style="edgeStyle=orthogonalEdgeStyle;rounded=0;orthogonalLoop=1;jettySize=auto;html=1;exitX=0.5;exitY=0;exitDx=0;exitDy=0;startArrow=classic;startFill=1;" parent="1" source="lGSin_4eT-B3Pep32u-L-64" edge="1">
          <mxGeometry relative="1" as="geometry">
            <mxPoint x="415" y="850" as="sourcePoint" />
            <mxPoint x="591.01" y="900" as="targetPoint" />
            <Array as="points">
              <mxPoint x="335" y="840" />
              <mxPoint x="595" y="840" />
            </Array>
          </mxGeometry>
        </mxCell>
        <mxCell id="lGSin_4eT-B3Pep32u-L-83" value="&lt;b&gt;테이블&lt;/b&gt;" style="endArrow=none;html=1;rounded=0;entryX=0.496;entryY=1.025;entryDx=0;entryDy=0;entryPerimeter=0;" parent="1" target="lGSin_4eT-B3Pep32u-L-22" edge="1">
          <mxGeometry width="50" height="50" relative="1" as="geometry">
            <mxPoint x="464" y="840" as="sourcePoint" />
            <mxPoint x="464" y="770" as="targetPoint" />
          </mxGeometry>
        </mxCell>
      </root>
    </mxGraphModel>
  </diagram>
</mxfile>
